<svg width="36" height="36" viewBox="0 0 36 36" fill="none" xmlns="http://www.w3.org/2000/svg">
<path d="M35.5 0.5V35.5H0.5V0.5H35.5Z" fill="#1F1F1F"/>
<path d="M35.5 0.5V35.5H0.5V0.5H35.5Z" stroke="#3C3C3C"/>
<path d="M21.2074 13.3438C21.1278 12.5994 20.7926 12.0199 20.2017 11.6051C19.6165 11.1903 18.8551 10.983 17.9176 10.983C17.2585 10.983 16.6932 11.0824 16.2216 11.2812C15.75 11.4801 15.3892 11.75 15.1392 12.0909C14.8892 12.4318 14.7614 12.821 14.7557 13.2585C14.7557 13.6222 14.8381 13.9375 15.0028 14.2045C15.1733 14.4716 15.4034 14.6989 15.6932 14.8864C15.983 15.0682 16.304 15.2216 16.6562 15.3466C17.0085 15.4716 17.3636 15.5767 17.7216 15.6619L19.358 16.071C20.017 16.2244 20.6506 16.4318 21.2585 16.6932C21.8722 16.9545 22.4205 17.2841 22.9034 17.6818C23.392 18.0795 23.7784 18.5597 24.0625 19.1222C24.3466 19.6847 24.4886 20.3437 24.4886 21.0994C24.4886 22.1222 24.2273 23.0227 23.7045 23.8011C23.1818 24.5739 22.4261 25.179 21.4375 25.6165C20.4545 26.0483 19.2642 26.2642 17.8665 26.2642C16.5085 26.2642 15.3295 26.054 14.3295 25.6335C13.3352 25.2131 12.5568 24.5994 11.9943 23.7926C11.4375 22.9858 11.1364 22.0028 11.0909 20.8438H14.2017C14.2472 21.4517 14.4347 21.9574 14.7642 22.3608C15.0938 22.7642 15.5227 23.0653 16.0511 23.2642C16.5852 23.4631 17.1818 23.5625 17.8409 23.5625C18.5284 23.5625 19.1307 23.4602 19.6477 23.2557C20.1705 23.0455 20.5795 22.7557 20.875 22.3864C21.1705 22.0114 21.321 21.5739 21.3267 21.0739C21.321 20.6193 21.1875 20.2443 20.9261 19.9489C20.6648 19.6477 20.2983 19.3977 19.8267 19.1989C19.3608 18.9943 18.8153 18.8125 18.1903 18.6534L16.2045 18.142C14.767 17.7727 13.6307 17.2131 12.7955 16.4631C11.9659 15.7074 11.5511 14.7045 11.5511 13.4545C11.5511 12.4261 11.8295 11.5256 12.3864 10.7528C12.9489 9.98011 13.7131 9.38068 14.679 8.95454C15.6449 8.52273 16.7386 8.30682 17.9602 8.30682C19.1989 8.30682 20.2841 8.52273 21.2159 8.95454C22.1534 9.38068 22.8892 9.97443 23.4233 10.7358C23.9574 11.4915 24.233 12.3608 24.25 13.3438H21.2074Z" fill="#808080"/>
</svg>
