<svg width="36" height="36" viewBox="0 0 36 36" fill="none" xmlns="http://www.w3.org/2000/svg">
<path d="M35.5 0.5V35.5H0.5V0.5H35.5Z" fill="#1F1F1F"/>
<path d="M35.5 0.5V35.5H0.5V0.5H35.5Z" stroke="#3C3C3C"/>
<path d="M11.7216 26V8.54545H18.267C19.608 8.54545 20.733 8.77841 21.642 9.24432C22.5568 9.71023 23.2472 10.3636 23.7131 11.2045C24.1847 12.0398 24.4205 13.0142 24.4205 14.1278C24.4205 15.2472 24.1818 16.2187 23.7045 17.0426C23.233 17.8608 22.5369 18.4943 21.6165 18.9432C20.696 19.3864 19.5653 19.608 18.2244 19.608H13.5625V16.983H17.7983C18.5824 16.983 19.2244 16.875 19.7244 16.6591C20.2244 16.4375 20.5938 16.1165 20.8324 15.696C21.0767 15.2699 21.1989 14.7472 21.1989 14.1278C21.1989 13.5085 21.0767 12.9801 20.8324 12.5426C20.5881 12.0994 20.2159 11.7642 19.7159 11.5369C19.2159 11.304 18.571 11.1875 17.7812 11.1875H14.8835V26H11.7216ZM20.7386 18.0909L25.0597 26H21.5312L17.2869 18.0909H20.7386Z" fill="#808080"/>
</svg>
