<svg width="48" height="48" viewBox="0 0 48 48" fill="none" xmlns="http://www.w3.org/2000/svg">
<path d="M40.5 3H7.5C6.30653 3 5.16193 3.47411 4.31802 4.31802C3.47411 5.16193 3 6.30653 3 7.5V40.5C3 41.6935 3.47411 42.8381 4.31802 43.682C5.16193 44.5259 6.30653 45 7.5 45H40.5C41.6935 45 42.8381 44.5259 43.682 43.682C44.5259 42.8381 45 41.6935 45 40.5V7.5C45 6.30653 44.5259 5.16193 43.682 4.31802C42.8381 3.47411 41.6935 3 40.5 3ZM7.5 6H40.5C40.8978 6 41.2794 6.15804 41.5607 6.43934C41.842 6.72064 42 7.10218 42 7.5V12H6V7.5C6 7.10218 6.15804 6.72064 6.43934 6.43934C6.72064 6.15804 7.10218 6 7.5 6ZM40.5 42H7.5C7.10218 42 6.72064 41.842 6.43934 41.5607C6.15804 41.2794 6 40.8978 6 40.5V15H42V40.5C42 40.8978 41.842 41.2794 41.5607 41.5607C41.2794 41.842 40.8978 42 40.5 42Z" fill="#B3B3B3"/>
<path d="M13.065 19.935C12.7826 19.6525 12.3995 19.4939 12 19.4939C11.6006 19.4939 11.2175 19.6525 10.935 19.935C10.6526 20.2175 10.4939 20.6006 10.4939 21C10.4939 21.1978 10.5329 21.3936 10.6085 21.5764C10.6842 21.7591 10.7952 21.9251 10.935 22.065L15.135 26.25L10.935 30.435C10.7944 30.5744 10.6828 30.7403 10.6067 30.9231C10.5305 31.1059 10.4913 31.302 10.4913 31.5C10.4913 31.698 10.5305 31.8941 10.6067 32.0769C10.6828 32.2597 10.7944 32.4256 10.935 32.565C11.0745 32.7056 11.2404 32.8172 11.4232 32.8933C11.606 32.9695 11.802 33.0087 12 33.0087C12.198 33.0087 12.3941 32.9695 12.5769 32.8933C12.7597 32.8172 12.9256 32.7056 13.065 32.565L18.315 27.315C18.4556 27.1756 18.5672 27.0097 18.6434 26.8269C18.7195 26.6441 18.7587 26.448 18.7587 26.25C18.7587 26.052 18.7195 25.8559 18.6434 25.6731C18.5672 25.4903 18.4556 25.3244 18.315 25.185L13.065 19.935Z" fill="#B3B3B3"/>
<path d="M27 30H21C20.6022 30 20.2206 30.158 19.9393 30.4393C19.658 30.7206 19.5 31.1022 19.5 31.5C19.5 31.8978 19.658 32.2794 19.9393 32.5607C20.2206 32.842 20.6022 33 21 33H27C27.3978 33 27.7794 32.842 28.0607 32.5607C28.342 32.2794 28.5 31.8978 28.5 31.5C28.5 31.1022 28.342 30.7206 28.0607 30.4393C27.7794 30.158 27.3978 30 27 30Z" fill="#B3B3B3"/>
</svg>
