<svg width="48" height="48" viewBox="0 0 48 48" fill="none" xmlns="http://www.w3.org/2000/svg">
<path d="M33.9691 42.82L33.2985 45.5616C31.2864 46.3558 29.6792 46.9602 28.4824 47.3758C27.2843 47.7926 25.8922 48 24.3061 48C21.8703 48 19.9757 47.4033 18.6245 46.2181C17.2732 45.0282 16.5974 43.5204 16.5974 41.6912C16.5974 40.9831 16.6464 40.2547 16.7484 39.5127C16.8512 38.7697 17.0147 37.933 17.2384 36.9977L19.7529 28.0978C19.9766 27.2456 20.1667 26.4381 20.319 25.6745C20.4735 24.9157 20.5479 24.2175 20.5479 23.5889C20.5479 22.4524 20.3126 21.6574 19.8441 21.2104C19.3756 20.7647 18.4817 20.5384 17.1545 20.5384C16.5045 20.5384 15.8364 20.6425 15.1554 20.8439C14.4714 21.0461 13.8867 21.2414 13.3959 21.4229L14.0683 18.6791C15.7155 18.0084 17.29 17.4341 18.7961 16.9575C20.3022 16.4795 21.7253 16.2403 23.0714 16.2403C25.4904 16.2403 27.357 16.825 28.6678 17.9942C29.9786 19.1644 30.6338 20.6813 30.6338 22.5505C30.6338 22.9372 30.5908 23.6186 30.4983 24.5926C30.408 25.5687 30.2398 26.4631 29.9946 27.2766L27.4908 36.1408C27.2856 36.8528 27.1011 37.6667 26.9406 38.5826C26.775 39.4924 26.6958 40.1876 26.6958 40.654C26.6958 41.831 26.9582 42.6346 27.4844 43.0618C28.0144 43.489 28.9272 43.7015 30.2239 43.7015C30.8326 43.7015 31.5252 43.5935 32.2948 43.3814C33.0623 43.1693 33.622 42.9831 33.9691 42.82ZM34.6041 5.60546C34.6041 7.14986 34.0221 8.46884 32.8524 9.55337C31.6857 10.6418 30.2798 11.1864 28.6351 11.1864C26.9853 11.1864 25.576 10.6418 24.396 9.55337C23.2181 8.46841 22.6279 7.14986 22.6279 5.60546C22.6279 4.06406 23.2181 2.74293 24.396 1.64464C25.5739 0.54807 26.9858 0 28.6351 0C30.2794 0 31.6857 0.54936 32.8524 1.64464C34.0229 2.74293 34.6041 4.06449 34.6041 5.60546Z" fill="#B3B3B3"/>
</svg>
