<svg width="48" height="48" viewBox="0 0 48 48" fill="none" xmlns="http://www.w3.org/2000/svg">
<path d="M27.5245 25.5361L23.4642 29.5964L18.4036 24.5358L22.4639 20.4754C23.0009 19.9385 23.0009 19.0679 22.4639 18.5309C21.9269 17.9939 21.0563 17.9939 20.5194 18.5309L16.459 22.5913L14.6131 20.7454C14.0762 20.2085 13.2056 20.2084 12.6686 20.7454L8.03881 25.3752C4.34711 29.0669 4.04504 34.8837 7.13157 38.9238L2.40277 43.6528C1.86574 44.1897 1.86574 45.0604 2.40277 45.5973C2.67124 45.8658 3.02307 46 3.37498 46C3.72689 46 4.07872 45.8657 4.34719 45.5972L9.07599 40.8683C10.9157 42.2738 13.1236 42.9771 15.3317 42.9771C17.9729 42.9771 20.614 41.9718 22.6247 39.9611L27.2545 35.3313C27.5124 35.0735 27.6573 34.7237 27.6573 34.3591C27.6573 33.9944 27.5124 33.6447 27.2545 33.3869L25.4087 31.541L29.469 27.4807C30.006 26.9438 30.006 26.0731 29.469 25.5362C28.932 24.9992 28.0614 24.9992 27.5245 25.5361ZM20.6802 38.0167C17.7311 40.9657 12.9326 40.9657 9.98341 38.0167C7.03429 35.0675 7.03429 30.269 9.98341 27.3198L13.641 23.6623L24.3377 34.3591L20.6802 38.0167ZM45.5972 2.40277C45.0603 1.86574 44.1897 1.86574 43.6527 2.40277L38.9239 7.13157C34.8837 4.04503 29.0669 4.34719 25.3753 8.03881L20.7455 12.6687C20.2084 13.2056 20.2084 14.0763 20.7455 14.6132L33.3868 27.2546C33.6446 27.5125 33.9944 27.6574 34.359 27.6574C34.7236 27.6574 35.0734 27.5125 35.3312 27.2546L39.9611 22.6247C43.6528 18.933 43.9549 13.1163 40.8683 9.07616L45.5972 4.34728C46.1343 3.81025 46.1343 2.93971 45.5972 2.40277ZM38.0167 20.6802L34.3591 24.3378L23.6622 13.6409L27.3198 9.98332C30.269 7.03429 35.0676 7.03429 38.0167 9.98332C40.9657 12.9324 40.9657 17.731 38.0167 20.6802Z" fill="#B3B3B3"/>
</svg>
