<svg width="48" height="48" viewBox="0 0 48 48" fill="none" xmlns="http://www.w3.org/2000/svg">
<g clip-path="url(#clip0_58_3)">
<path d="M32.2174 3H30.3913C29.3828 3 28.5652 3.81757 28.5652 4.82609V10.3043C28.5652 11.3129 29.3828 12.1304 30.3913 12.1304H32.2174C33.2259 12.1304 34.0434 11.3129 34.0434 10.3043V4.82609C34.0434 3.81757 33.2259 3 32.2174 3Z" fill="#B3B3B3"/>
<path d="M17.6087 19.4348H15.7826C14.7741 19.4348 13.9565 20.2524 13.9565 21.2609V26.7392C13.9565 27.7477 14.7741 28.5653 15.7826 28.5653H17.6087C18.6172 28.5653 19.4348 27.7477 19.4348 26.7392V21.2609C19.4348 20.2524 18.6172 19.4348 17.6087 19.4348Z" fill="#B3B3B3"/>
<path d="M27.6522 35.8696H25.8261C24.8176 35.8696 24 36.6872 24 37.6957V43.174C24 44.1825 24.8176 45.0001 25.8261 45.0001H27.6522C28.6607 45.0001 29.4783 44.1825 29.4783 43.174V37.6957C29.4783 36.6872 28.6607 35.8696 27.6522 35.8696Z" fill="#B3B3B3"/>
<path d="M44.087 5.73914H35.8696V9.39131H44.087C44.3292 9.39131 44.5614 9.29511 44.7326 9.12389C44.9039 8.95266 45.0001 8.72042 45.0001 8.47827V6.65218C45.0001 6.41003 44.9039 6.17779 44.7326 6.00656C44.5614 5.83533 44.3292 5.73914 44.087 5.73914Z" fill="#B3B3B3"/>
<path d="M3.91304 9.39131H26.7391V5.73914H3.91304C3.67089 5.73914 3.43865 5.83533 3.26742 6.00656C3.0962 6.17779 3 6.41003 3 6.65218V8.47827C3 8.72042 3.0962 8.95266 3.26742 9.12389C3.43865 9.29511 3.67089 9.39131 3.91304 9.39131Z" fill="#B3B3B3"/>
<path d="M44.0869 22.174H21.2609V25.8261H44.0869C44.3291 25.8261 44.5613 25.7299 44.7326 25.5587C44.9038 25.3875 45 25.1552 45 24.9131V23.087C45 22.8448 44.9038 22.6126 44.7326 22.4414C44.5613 22.2701 44.3291 22.174 44.0869 22.174Z" fill="#B3B3B3"/>
<path d="M3.91304 25.8261H12.1304V22.174H3.91304C3.67089 22.174 3.43865 22.2701 3.26742 22.4414C3.0962 22.6126 3 22.8448 3 23.087V24.9131C3 25.1552 3.0962 25.3875 3.26742 25.5587C3.43865 25.7299 3.67089 25.8261 3.91304 25.8261Z" fill="#B3B3B3"/>
<path d="M3 39.5217V41.3478C3 41.5899 3.0962 41.8222 3.26742 41.9934C3.43865 42.1646 3.67089 42.2608 3.91304 42.2608H22.1739V38.6086H3.91304C3.67089 38.6086 3.43865 38.7048 3.26742 38.8761C3.0962 39.0473 3 39.2795 3 39.5217Z" fill="#B3B3B3"/>
<path d="M44.0869 38.6086H31.3043V42.2608H44.0869C44.3291 42.2608 44.5613 42.1646 44.7325 41.9934C44.9038 41.8222 45 41.5899 45 41.3478V39.5217C45 39.2795 44.9038 39.0473 44.7325 38.8761C44.5613 38.7048 44.3291 38.6086 44.0869 38.6086Z" fill="#B3B3B3"/>
</g>
<defs>
<clipPath id="clip0_58_3">
<rect width="48" height="48" fill="white"/>
</clipPath>
</defs>
</svg>
