<svg width="48" height="48" viewBox="0 0 48 48" fill="none" xmlns="http://www.w3.org/2000/svg">
<path d="M18.8727 46C17.6975 46 17.4037 45.2584 16.7182 24.4449C16.5223 18.0674 16.2775 10.6022 15.9347 6.4C15.6899 9.51461 15.494 14.3596 15.3471 18.5618C14.7106 35.3213 14.3678 36.9034 12.9967 36.9034C11.4788 36.9034 11.2339 34.382 10.7443 26.5708C10.5974 23.8517 10.3526 19.9955 9.96083 18.4629C9.61806 19.5506 9.37323 21.8247 9.17737 23.3079C8.73667 27.4112 8.44287 29.4382 7.07182 29.4382C5.89663 29.4382 5.40696 28.5978 5.11317 28.0539C4.81937 27.5101 4.6235 27.2629 4.13384 27.2629H1.73449C1.34276 27.2629 1 26.9169 1 26.5213C1 26.1258 1.34276 25.7798 1.73449 25.7798H4.18281C5.55386 25.7798 6.09249 26.6697 6.43526 27.3124C6.68009 27.7079 6.77802 27.9056 6.92492 27.9551C7.26768 27.3124 7.56148 24.8405 7.75734 23.209C8.24701 18.8584 8.58977 16.5843 10.0588 16.5843C11.4788 16.5843 11.7726 19.0067 12.2133 26.5708C12.3602 29.0921 12.556 32.6022 12.8988 34.4315C13.3885 31.4652 13.6333 24.1483 13.8292 18.5618C14.4168 3.23596 14.6616 2 15.9347 2C17.1589 2 17.4527 2.84045 18.1872 24.3955C18.383 30.2787 18.6279 37.2 18.9217 41.2539C19.1665 37.9416 19.4113 32.9483 19.5582 28.5978C20.2437 12.036 20.5375 10.6022 21.8107 10.6022C23.0838 10.6022 23.3776 12.1843 23.8672 22.8629C24.0631 26.6697 24.3079 32.0584 24.7486 34.2831C25.0424 32.7506 25.2383 29.636 25.3852 27.4112C25.8259 20.391 26.1197 17.9685 27.6377 17.9685C29.2535 17.9685 29.4494 20.6876 29.7432 24.4449C29.8901 26.373 30.086 29.5371 30.6246 30.0315C31.1143 29.9326 31.3101 28.2517 31.457 27.2629C31.7018 25.5326 31.9467 23.6045 33.5136 23.6045C34.9826 23.6045 35.4233 24.7416 35.7661 25.5326C36.0598 26.2742 36.2067 26.4225 36.4516 26.4225C37.0392 26.4225 37.235 26.1753 37.5778 25.7798C37.9206 25.3843 38.4102 24.791 39.3896 24.791C40.222 24.791 40.7116 25.0876 41.0544 25.3348C41.3482 25.5326 41.642 25.7303 42.3275 25.7303H45.2655C45.6572 25.7303 46 26.0764 46 26.4719C46 26.8674 45.6572 27.2135 45.2655 27.2135H42.3275C41.1523 27.2135 40.6137 26.818 40.222 26.5708C39.9282 26.373 39.7813 26.2742 39.3896 26.2742C39.1447 26.2742 38.9978 26.373 38.6551 26.7685C38.2633 27.2135 37.6757 27.9056 36.4516 27.9056C35.1295 27.9056 34.6888 26.818 34.395 26.0764C34.0522 25.2854 33.9543 25.0876 33.5136 25.0876C33.2198 25.2854 33.0239 26.7191 32.926 27.4607C32.6812 29.2899 32.3874 31.5146 30.5756 31.5146C28.7639 31.5146 28.519 28.4494 28.2742 24.5438C28.1763 23.0607 27.9804 20.7371 27.6866 19.7978C27.2459 21.1326 27.0011 24.9393 26.8542 27.5596C26.4625 34.2831 26.2176 36.6562 24.7486 36.6562C23.3286 36.6562 22.9859 34.6292 22.3983 23.0112C22.2514 20.1438 22.0555 16.5348 21.8107 14.2112C21.4679 17.573 21.1741 23.8022 20.9782 28.6966C20.3906 44.7146 20.0968 46 18.8727 46Z" fill="#B3B3B3"/>
</svg>
