<svg width="48" height="48" viewBox="0 0 48 48" fill="none" xmlns="http://www.w3.org/2000/svg">
<path d="M6 9C4.34325 9 3 10.3431 3 12V36C3 37.6568 4.34325 39 6 39C7.65675 39 9 37.6568 9 36V12C9 10.3431 7.65675 9 6 9Z" fill="#B3B3B3"/>
<path d="M15 15C13.3432 15 12 16.3431 12 18V30C12 31.6568 13.3432 33 15 33C16.6568 33 18 31.6568 18 30V18C18 16.3431 16.6568 15 15 15Z" fill="#B3B3B3"/>
<path d="M24 0C22.3432 0 21 1.34306 21 3V45C21 46.6568 22.3432 48 24 48C25.6568 48 27 46.6568 27 45V3C27 1.34306 25.6568 0 24 0Z" fill="#B3B3B3"/>
<path d="M33 7.5C31.3432 7.5 30 8.84306 30 10.5V37.5C30 39.1568 31.3432 40.5 33 40.5C34.6568 40.5 36 39.1568 36 37.5V10.5C36 8.84306 34.6568 7.5 33 7.5Z" fill="#B3B3B3"/>
<path d="M42 15C40.3432 15 39 16.3431 39 18V30C39 31.6568 40.3432 33 42 33C43.6568 33 45 31.6568 45 30V18C45 16.3431 43.6568 15 42 15Z" fill="#B3B3B3"/>
</svg>
