<svg width="48" height="48" viewBox="0 0 48 48" fill="none" xmlns="http://www.w3.org/2000/svg">
<path d="M37 16.6667H43V5.25926C43 4.39485 42.842 3.56584 42.5607 2.95461C42.2794 2.34339 41.8978 2 41.5 2H38.5C38.1022 2 37.7206 2.34339 37.4393 2.95461C37.158 3.56584 37 4.39485 37 5.25926V16.6667Z" fill="#B3B3B3"/>
<path d="M43 43.8272C43 44.4034 42.842 44.9561 42.5607 45.3636C42.2794 45.7711 41.8978 46 41.5 46H38.5C38.1022 46 37.7206 45.7711 37.4393 45.3636C37.158 44.9561 37 44.4034 37 43.8272V16.6667H43V18.8395V43.8272Z" fill="#B3B3B3"/>
<rect x="32" y="15.4444" width="16" height="3.66667" rx="1" fill="#B3B3B3"/>
<path d="M21 16.6667H27V5.25926C27 4.39485 26.842 3.56584 26.5607 2.95461C26.2794 2.34339 25.8978 2 25.5 2H22.5C22.1022 2 21.7206 2.34339 21.4393 2.95461C21.158 3.56584 21 4.39485 21 5.25926V16.6667Z" fill="#B3B3B3"/>
<path d="M27 43.8272C27 44.4034 26.842 44.9561 26.5607 45.3636C26.2794 45.7711 25.8978 46 25.5 46H22.5C22.1022 46 21.7206 45.7711 21.4393 45.3636C21.158 44.9561 21 44.4034 21 43.8272V16.6667H27V18.8395V43.8272Z" fill="#B3B3B3"/>
<rect x="16" y="22.7778" width="16" height="3.66667" rx="1" fill="#B3B3B3"/>
<path d="M5 13H11V4.44444C11 3.79614 10.842 3.17438 10.5607 2.71596C10.2794 2.25754 9.89782 2 9.5 2H6.5C6.10218 2 5.72064 2.25754 5.43934 2.71596C5.15804 3.17438 5 3.79614 5 4.44444V13Z" fill="#B3B3B3"/>
<path d="M11 43.8272C11 44.4034 10.842 44.9561 10.5607 45.3636C10.2794 45.7711 9.89782 46 9.5 46H6.5C6.10218 46 5.72064 45.7711 5.43934 45.3636C5.15804 44.9561 5 44.4034 5 43.8272V16.6667H11V18.8395V43.8272Z" fill="#B3B3B3"/>
<rect y="13" width="16" height="3.66667" rx="1" fill="#B3B3B3"/>
</svg>
